<mxfile host="app.diagrams.net" modified="2024-05-07T17:17:45.927Z" agent="Mozilla/5.0 (Macintosh; Intel Mac OS X 10_15_7) AppleWebKit/537.36 (KHTML, like Gecko) Chrome/124.0.0.0 Safari/537.36" etag="yTgoiYC5R5_L_O8iTKH5" version="21.5.2" type="device">
  <diagram name="Page-1" id="EX6nPKKywLgNg2TpyHML">
    <mxGraphModel dx="1638" dy="880" grid="1" gridSize="10" guides="1" tooltips="1" connect="1" arrows="1" fold="1" page="1" pageScale="1" pageWidth="827" pageHeight="1169" math="0" shadow="0">
      <root>
        <mxCell id="0" />
        <mxCell id="1" parent="0" />
        <mxCell id="jRjNQTbicxISZ7VYnJrL-5" value="" style="rounded=1;whiteSpace=wrap;html=1;" vertex="1" parent="1">
          <mxGeometry x="640" y="600" width="1510" height="360" as="geometry" />
        </mxCell>
        <mxCell id="jRjNQTbicxISZ7VYnJrL-8" style="edgeStyle=orthogonalEdgeStyle;rounded=0;orthogonalLoop=1;jettySize=auto;html=1;entryX=0;entryY=0.5;entryDx=0;entryDy=0;" edge="1" parent="1" source="jRjNQTbicxISZ7VYnJrL-3" target="jRjNQTbicxISZ7VYnJrL-7">
          <mxGeometry relative="1" as="geometry" />
        </mxCell>
        <mxCell id="jRjNQTbicxISZ7VYnJrL-3" value="&lt;b&gt;user_activity&lt;br&gt;&lt;/b&gt;customer_id: INTEGER&lt;br&gt;hotel_viewed: STRING" style="rounded=0;whiteSpace=wrap;html=1;" vertex="1" parent="1">
          <mxGeometry x="320" y="640" width="160" height="80" as="geometry" />
        </mxCell>
        <mxCell id="jRjNQTbicxISZ7VYnJrL-12" style="edgeStyle=orthogonalEdgeStyle;rounded=0;orthogonalLoop=1;jettySize=auto;html=1;exitX=1;exitY=0.5;exitDx=0;exitDy=0;entryX=0;entryY=0.5;entryDx=0;entryDy=0;" edge="1" parent="1" source="jRjNQTbicxISZ7VYnJrL-4" target="jRjNQTbicxISZ7VYnJrL-11">
          <mxGeometry relative="1" as="geometry" />
        </mxCell>
        <mxCell id="jRjNQTbicxISZ7VYnJrL-4" value="&lt;b&gt;search_request&lt;br&gt;&lt;/b&gt;customer_id: STRING&lt;br&gt;location: STRING&lt;br&gt;check_in_date: DATE&lt;br&gt;check_out_date_val: DATE&lt;br style=&quot;border-color: var(--border-color);&quot;&gt;guests: INTEGER" style="rounded=0;whiteSpace=wrap;html=1;" vertex="1" parent="1">
          <mxGeometry x="320" y="800" width="160" height="120" as="geometry" />
        </mxCell>
        <mxCell id="jRjNQTbicxISZ7VYnJrL-18" style="edgeStyle=orthogonalEdgeStyle;rounded=0;orthogonalLoop=1;jettySize=auto;html=1;" edge="1" parent="1" source="jRjNQTbicxISZ7VYnJrL-7" target="jRjNQTbicxISZ7VYnJrL-17">
          <mxGeometry relative="1" as="geometry" />
        </mxCell>
        <mxCell id="jRjNQTbicxISZ7VYnJrL-7" value="&lt;b&gt;add_user_session&lt;/b&gt;&lt;br&gt;customer_id: STRING&lt;br&gt;hotels_viewed: LIST&amp;lt;STRING&amp;gt;" style="rounded=1;whiteSpace=wrap;html=1;" vertex="1" parent="1">
          <mxGeometry x="680" y="640" width="180" height="80" as="geometry" />
        </mxCell>
        <mxCell id="jRjNQTbicxISZ7VYnJrL-14" style="edgeStyle=orthogonalEdgeStyle;rounded=0;orthogonalLoop=1;jettySize=auto;html=1;entryX=0;entryY=0.5;entryDx=0;entryDy=0;" edge="1" parent="1" source="jRjNQTbicxISZ7VYnJrL-11" target="jRjNQTbicxISZ7VYnJrL-13">
          <mxGeometry relative="1" as="geometry" />
        </mxCell>
        <mxCell id="jRjNQTbicxISZ7VYnJrL-11" value="&lt;b&gt;determine_trip_type&lt;/b&gt;&lt;br&gt;trip_type: STRING" style="rounded=1;whiteSpace=wrap;html=1;" vertex="1" parent="1">
          <mxGeometry x="680" y="820" width="160" height="80" as="geometry" />
        </mxCell>
        <mxCell id="jRjNQTbicxISZ7VYnJrL-16" style="edgeStyle=orthogonalEdgeStyle;rounded=0;orthogonalLoop=1;jettySize=auto;html=1;exitX=1;exitY=0.5;exitDx=0;exitDy=0;entryX=0;entryY=0.5;entryDx=0;entryDy=0;" edge="1" parent="1" source="jRjNQTbicxISZ7VYnJrL-13" target="jRjNQTbicxISZ7VYnJrL-15">
          <mxGeometry relative="1" as="geometry" />
        </mxCell>
        <mxCell id="jRjNQTbicxISZ7VYnJrL-13" value="&lt;b&gt;retrieve_customer_profile&lt;/b&gt;&lt;br&gt;customer_id: INTEGER&lt;br&gt;customer_age: INTEGER&lt;br&gt;customer_gender: STRING&lt;br&gt;customer_home: STRING&lt;br&gt;customer_hotel_loyalty: STRING&lt;br&gt;customer_flight_loyalty: STRING" style="rounded=1;whiteSpace=wrap;html=1;" vertex="1" parent="1">
          <mxGeometry x="890" y="795" width="220" height="130" as="geometry" />
        </mxCell>
        <mxCell id="jRjNQTbicxISZ7VYnJrL-19" style="edgeStyle=orthogonalEdgeStyle;rounded=0;orthogonalLoop=1;jettySize=auto;html=1;" edge="1" parent="1" source="jRjNQTbicxISZ7VYnJrL-15" target="jRjNQTbicxISZ7VYnJrL-17">
          <mxGeometry relative="1" as="geometry" />
        </mxCell>
        <mxCell id="jRjNQTbicxISZ7VYnJrL-15" value="&lt;b&gt;retrieve_customer_history&lt;/b&gt;&lt;br&gt;preferred_travel_type: STRING&lt;br&gt;preferred_activities: STRING&lt;br&gt;preferred_perks: STRING" style="rounded=1;whiteSpace=wrap;html=1;" vertex="1" parent="1">
          <mxGeometry x="1160" y="820" width="220" height="80" as="geometry" />
        </mxCell>
        <mxCell id="jRjNQTbicxISZ7VYnJrL-25" style="edgeStyle=orthogonalEdgeStyle;rounded=0;orthogonalLoop=1;jettySize=auto;html=1;exitX=1;exitY=0.5;exitDx=0;exitDy=0;" edge="1" parent="1" source="jRjNQTbicxISZ7VYnJrL-17" target="jRjNQTbicxISZ7VYnJrL-20">
          <mxGeometry relative="1" as="geometry" />
        </mxCell>
        <mxCell id="jRjNQTbicxISZ7VYnJrL-17" value="&lt;b&gt;retrieve_clickstream_data&lt;/b&gt;&lt;br&gt;session_data: STRING" style="rounded=1;whiteSpace=wrap;html=1;" vertex="1" parent="1">
          <mxGeometry x="1160" y="640" width="220" height="80" as="geometry" />
        </mxCell>
        <mxCell id="jRjNQTbicxISZ7VYnJrL-28" style="edgeStyle=orthogonalEdgeStyle;rounded=0;orthogonalLoop=1;jettySize=auto;html=1;exitX=1;exitY=0.5;exitDx=0;exitDy=0;entryX=0;entryY=0.25;entryDx=0;entryDy=0;" edge="1" parent="1" source="jRjNQTbicxISZ7VYnJrL-20" target="jRjNQTbicxISZ7VYnJrL-26">
          <mxGeometry relative="1" as="geometry" />
        </mxCell>
        <mxCell id="jRjNQTbicxISZ7VYnJrL-20" value="&lt;b&gt;request_itinerary&lt;/b&gt;&lt;br&gt;trip_type: STRING&lt;br&gt;session_data: STRING&lt;br&gt;trip_details: DICTIONARY&lt;br&gt;customer_profile: DICTIONARY&lt;br&gt;customer_history: DICTIONARY" style="rounded=1;whiteSpace=wrap;html=1;" vertex="1" parent="1">
          <mxGeometry x="1470" y="640" width="220" height="130" as="geometry" />
        </mxCell>
        <mxCell id="jRjNQTbicxISZ7VYnJrL-24" style="edgeStyle=orthogonalEdgeStyle;rounded=0;orthogonalLoop=1;jettySize=auto;html=1;entryX=0.5;entryY=1;entryDx=0;entryDy=0;" edge="1" parent="1" source="jRjNQTbicxISZ7VYnJrL-22" target="jRjNQTbicxISZ7VYnJrL-23">
          <mxGeometry relative="1" as="geometry" />
        </mxCell>
        <mxCell id="jRjNQTbicxISZ7VYnJrL-22" value="&lt;b&gt;hotel&lt;br&gt;&lt;/b&gt;location: STRING&lt;br&gt;hotel: STRING&lt;br&gt;price: STRING&lt;br&gt;room_size: INTEGER" style="rounded=0;whiteSpace=wrap;html=1;" vertex="1" parent="1">
          <mxGeometry x="1500" y="1030" width="160" height="80" as="geometry" />
        </mxCell>
        <mxCell id="jRjNQTbicxISZ7VYnJrL-27" style="edgeStyle=orthogonalEdgeStyle;rounded=0;orthogonalLoop=1;jettySize=auto;html=1;exitX=1;exitY=0.5;exitDx=0;exitDy=0;entryX=0;entryY=0.75;entryDx=0;entryDy=0;" edge="1" parent="1" source="jRjNQTbicxISZ7VYnJrL-23" target="jRjNQTbicxISZ7VYnJrL-26">
          <mxGeometry relative="1" as="geometry" />
        </mxCell>
        <mxCell id="jRjNQTbicxISZ7VYnJrL-23" value="&lt;b&gt;add_hotel_information&lt;br&gt;&lt;/b&gt;hotels: LIST&amp;lt;DICTIONARY&amp;gt;" style="rounded=1;whiteSpace=wrap;html=1;" vertex="1" parent="1">
          <mxGeometry x="1470" y="820" width="220" height="80" as="geometry" />
        </mxCell>
        <mxCell id="jRjNQTbicxISZ7VYnJrL-30" style="edgeStyle=orthogonalEdgeStyle;rounded=0;orthogonalLoop=1;jettySize=auto;html=1;entryX=0;entryY=0.5;entryDx=0;entryDy=0;" edge="1" parent="1" source="jRjNQTbicxISZ7VYnJrL-26" target="jRjNQTbicxISZ7VYnJrL-29">
          <mxGeometry relative="1" as="geometry" />
        </mxCell>
        <mxCell id="jRjNQTbicxISZ7VYnJrL-33" style="edgeStyle=orthogonalEdgeStyle;rounded=0;orthogonalLoop=1;jettySize=auto;html=1;exitX=0.25;exitY=0;exitDx=0;exitDy=0;entryX=0.25;entryY=1;entryDx=0;entryDy=0;" edge="1" parent="1" source="jRjNQTbicxISZ7VYnJrL-26" target="jRjNQTbicxISZ7VYnJrL-32">
          <mxGeometry relative="1" as="geometry" />
        </mxCell>
        <mxCell id="jRjNQTbicxISZ7VYnJrL-26" value="&lt;b&gt;search_response&lt;br&gt;&lt;/b&gt;itinerary: STRING&lt;br&gt;hotels: LIST&amp;lt;DICTIONARY&amp;gt;" style="rounded=1;whiteSpace=wrap;html=1;" vertex="1" parent="1">
          <mxGeometry x="1820" y="640" width="220" height="260" as="geometry" />
        </mxCell>
        <mxCell id="jRjNQTbicxISZ7VYnJrL-29" value="&lt;b&gt;search_response&lt;/b&gt;" style="rounded=0;whiteSpace=wrap;html=1;" vertex="1" parent="1">
          <mxGeometry x="2250" y="710" width="160" height="120" as="geometry" />
        </mxCell>
        <mxCell id="jRjNQTbicxISZ7VYnJrL-31" value="&lt;b&gt;&lt;font style=&quot;font-size: 36px;&quot;&gt;trip-booking-app&lt;/font&gt;&lt;/b&gt;" style="text;html=1;strokeColor=none;fillColor=none;align=center;verticalAlign=middle;whiteSpace=wrap;rounded=0;" vertex="1" parent="1">
          <mxGeometry x="1220" y="470" width="370" height="80" as="geometry" />
        </mxCell>
        <mxCell id="jRjNQTbicxISZ7VYnJrL-34" style="edgeStyle=orthogonalEdgeStyle;rounded=0;orthogonalLoop=1;jettySize=auto;html=1;exitX=0.75;exitY=1;exitDx=0;exitDy=0;entryX=0.75;entryY=0;entryDx=0;entryDy=0;" edge="1" parent="1" source="jRjNQTbicxISZ7VYnJrL-32" target="jRjNQTbicxISZ7VYnJrL-26">
          <mxGeometry relative="1" as="geometry" />
        </mxCell>
        <mxCell id="jRjNQTbicxISZ7VYnJrL-32" value="&lt;b&gt;model&lt;/b&gt;" style="rounded=0;whiteSpace=wrap;html=1;" vertex="1" parent="1">
          <mxGeometry x="1870" y="460" width="120" height="60" as="geometry" />
        </mxCell>
      </root>
    </mxGraphModel>
  </diagram>
</mxfile>
